<?xml version="1.0" encoding="UTF-8" standalone="no"?>
<!-- Created with Inkscape (http://www.inkscape.org/) -->

<svg
   width="27.151428mm"
   height="32.998573mm"
   viewBox="0 0 27.151428 32.998573"
   version="1.1"
   id="svg5"
   xml:space="preserve"
   inkscape:version="1.2.1 (9c6d41e410, 2022-07-14)"
   sodipodi:docname="enclume_svgfulll_bdo.svg"
   xmlns:inkscape="http://www.inkscape.org/namespaces/inkscape"
   xmlns:sodipodi="http://sodipodi.sourceforge.net/DTD/sodipodi-0.dtd"
   xmlns="http://www.w3.org/2000/svg"
   xmlns:svg="http://www.w3.org/2000/svg"><sodipodi:namedview
     id="namedview7"
     pagecolor="#ffffff"
     bordercolor="#000000"
     borderopacity="0.25"
     inkscape:showpageshadow="2"
     inkscape:pageopacity="0.0"
     inkscape:pagecheckerboard="0"
     inkscape:deskcolor="#d1d1d1"
     inkscape:document-units="mm"
     showgrid="false"
     inkscape:zoom="1.4142136"
     inkscape:cx="263.75083"
     inkscape:cy="475.88286"
     inkscape:window-width="1920"
     inkscape:window-height="1057"
     inkscape:window-x="1912"
     inkscape:window-y="-8"
     inkscape:window-maximized="1"
     inkscape:current-layer="layer1" /><defs
     id="defs2" /><g
     inkscape:label="Calque 1"
     inkscape:groupmode="layer"
     id="layer1"
     transform="translate(-62.905946,-112.10727)"><path
       id="path587"
       style="fill:#000000;stroke:#050200;stroke-width:0.03"
       d="m 76.448047,112.12236 c -2.344317,-9e-5 -4.244785,2.00403 -4.244702,4.47621 0.0014,2.01422 1.278406,3.77937 3.120223,4.31291 v 0.89607 h -5.175912 l -0.363802,0.3638 h -0.562239 v -1.30638 h -2.116667 v 4.18373 h 2.116667 v -1.09968 h 0.37207 l 0.355534,0.35554 h 5.390885 l 0.03307,9.83919 -0.496094,0.71107 -0.446484,0.89297 -0.363802,0.87643 -0.677995,0.79375 -0.876432,0.52917 -1.008724,0.19843 -1.107943,0.0496 -1.124479,-0.14883 -1.02526,-0.26458 -0.744141,-0.26458 -0.56224,-0.57878 -0.826823,-0.77721 -0.413411,-0.84336 0.429948,-0.59531 -0.0026,-0.0114 -3.056661,-3.31246 -0.04961,0.1819 -0.09922,4.16719 1.157552,0.39687 0.396875,0.66404 0.537435,1.40302 0.7953,1.16944 0.888835,0.84181 1.075903,0.7953 1.168921,0.77152 1.146183,0.67852 1.473295,0.53743 2.133204,0.18345 v 0.42168 h 0.330729 v -0.43821 l 0.14056,0.0248 1.107942,0.10749 c 0,0 -0.01673,0.41505 0.115756,0.9095 0,0 0.05021,0.21958 0.248046,0.56224 0.298173,0.26889 0.379018,0.3142 0.496094,0.3142 h 0.711068 c 0.07016,0 0.249979,-0.15646 0.380855,-0.28733 0.114024,-0.11402 0.264067,-0.55603 0.264067,-0.55603 0.134604,-0.50236 0.165364,-1.05834 0.165364,-1.05834 l 1.405599,-0.0827 v 0.52917 h 0.413412 v -0.56224 l 1.372526,-0.16537 c 0.929596,-0.11693 1.736328,-0.46302 1.736328,-0.46302 1.028987,-0.46188 1.670182,-0.95911 1.670182,-0.95911 0.839224,-0.56637 1.703255,-1.24024 1.703255,-1.24024 0.935442,-0.70451 1.372526,-1.38906 1.372526,-1.38906 l 0.744141,-1.10794 0.711068,-1.38906 0.175396,-0.49693 1.081375,8.3e-4 -0.380339,-4.33255 -3.175,2.77812 0.644922,0.90951 -0.08268,0.62839 -0.677995,0.71106 -0.942578,0.79375 -1.256771,0.4961 -1.124479,0.1819 h -1.934766 l -0.79375,-0.0827 -0.826823,-0.46303 -0.694531,-0.87643 -0.777213,-1.86862 -0.446485,-0.64492 v -9.84746 h 5.167643 l 0.487826,-0.48783 h 0.545703 v 1.30638 H 85.8242 v -4.18372 h -2.000912 v 1.35599 h -0.314192 -0.33073 l -0.446484,-0.44648 h -5.192448 v -0.86713 c 1.859158,-0.52158 3.153178,-2.29656 3.153296,-4.32532 8.3e-5,-2.47218 -1.900385,-4.4763 -4.244702,-4.47621 z m 0.01654,1.57044 c 1.480589,8e-5 2.68084,1.25586 2.680974,2.805 -1.34e-4,1.54914 -1.200385,2.80492 -2.680974,2.805 -1.480589,-8e-5 -2.680839,-1.25586 -2.680973,-2.805 1.34e-4,-1.54914 1.200384,-2.80492 2.680973,-2.805 z"
       sodipodi:nodetypes="cccccccccccccccccccccccccccccccccccccccccccccccccccsssccccccccccccccccccccccccccccccccccccccccccccccccccc" /></g></svg>
