<?xml version="1.0" encoding="UTF-8" standalone="no"?>
<!-- Created with Inkscape (http://www.inkscape.org/) -->

<svg
   width="32.503029mm"
   height="25.849426mm"
   viewBox="0 0 32.503029 25.849426"
   version="1.1"
   id="svg5"
   fill="current"
   inkscape:version="1.2.1 (9c6d41e410, 2022-07-14)"
   sodipodi:docname="test.svg"
   xmlns:inkscape="http://www.inkscape.org/namespaces/inkscape"
   xmlns:sodipodi="http://sodipodi.sourceforge.net/DTD/sodipodi-0.dtd"
   xmlns="http://www.w3.org/2000/svg"
   xmlns:svg="http://www.w3.org/2000/svg">
  <sodipodi:namedview
     id="namedview7"
     pagecolor="#ffffff"
     bordercolor="#000000"
     borderopacity="0.25"
     inkscape:showpageshadow="2"
     inkscape:pageopacity="0.0"
     inkscape:pagecheckerboard="0"
     inkscape:deskcolor="#d1d1d1"
     inkscape:document-units="mm"
     showgrid="false"
     inkscape:zoom="5.6568543"
     inkscape:cx="331.80986"
     inkscape:cy="453.609"
     inkscape:window-width="1920"
     inkscape:window-height="1057"
     inkscape:window-x="1912"
     inkscape:window-y="-8"
     inkscape:window-maximized="1"
     inkscape:current-layer="layer1" />
  <defs
     id="defs2" />
  <g
     inkscape:label="Calque 1"
     inkscape:groupmode="layer"
     id="layer1"
     transform="translate(-73.153291,-107.4665)">
    <path
       id="rect234"
       style="fill:#000000;stroke:#050200;stroke-width:0.0247153"
       d="m 73.993416,118.18762 v 11.72073 h 30.822924 v -11.72073 z m 15.411463,1.1777 a 2.0287616,2.0287616 0 0 1 2.028816,2.02882 2.0287616,2.0287616 0 0 1 -1.52032,1.96215 v 2.81275 h -1.016992 v -2.81275 a 2.0287616,2.0287616 0 0 1 -1.520321,-1.96215 2.0287616,2.0287616 0 0 1 2.028817,-2.02882 z" />
    <rect
       style="fill:#000000;stroke:#050200;stroke-width:0.0310148"
       id="rect288"
       width="2.7505567"
       height="3.5982282"
       x="102.06251"
       y="129.70219" />
    <rect
       style="fill:#000000;stroke:#050200;stroke-width:0.0316078"
       id="rect398"
       width="2.7499635"
       height="3.7379518"
       x="73.996864"
       y="129.56218" />
    <rect
       style="fill:#000000;stroke:#050200;stroke-width:0.0339514"
       id="rect402"
       width="0.93412751"
       height="1.6496943"
       x="73.170273"
       y="118.19224" />
    <rect
       style="fill:#000000;stroke:#050200;stroke-width:0.0347679"
       id="rect404"
       width="0.98008317"
       height="1.6488779"
       x="104.65886"
       y="118.1928" />
    <path
       id="rect406"
       style="stroke:#050200;stroke-width:0.02263"
       d="m 77.266255,108.13796 c 1.621442,-1.14029 6.273437,-0.4381 12.158188,-0.37307 5.046676,0.0558 10.813217,-0.88804 12.316447,0.37307 1.50323,1.26111 3.07601,9.32584 3.07601,9.32584 H 73.991797 c 0,0 1.653017,-8.18555 3.274458,-9.32584 z"
       sodipodi:nodetypes="zszccz" />
  </g>
</svg>