<?xml version="1.0" encoding="UTF-8" standalone="no"?>
<!-- Created with Inkscape (http://www.inkscape.org/) -->

<svg
   width="64.000229mm"
   height="63.99971mm"
   viewBox="0 0 64.000229 63.99971"
   version="1.1"
   id="svg5"
   xml:space="preserve"
   sodipodi:docname="maximize.svg"
   inkscape:version="1.2.1 (9c6d41e410, 2022-07-14)"
   xmlns:inkscape="http://www.inkscape.org/namespaces/inkscape"
   xmlns:sodipodi="http://sodipodi.sourceforge.net/DTD/sodipodi-0.dtd"
   xmlns="http://www.w3.org/2000/svg"
   xmlns:svg="http://www.w3.org/2000/svg"><sodipodi:namedview
     id="namedview7"
     pagecolor="#ffffff"
     bordercolor="#000000"
     borderopacity="0.25"
     inkscape:showpageshadow="2"
     inkscape:pageopacity="0.0"
     inkscape:pagecheckerboard="0"
     inkscape:deskcolor="#d1d1d1"
     inkscape:document-units="mm"
     showgrid="false"
     inkscape:zoom="1.8128175"
     inkscape:cx="-28.408817"
     inkscape:cy="136.252"
     inkscape:window-width="1920"
     inkscape:window-height="1057"
     inkscape:window-x="-8"
     inkscape:window-y="-8"
     inkscape:window-maximized="1"
     inkscape:current-layer="layer1" /><defs
     id="defs2" /><g
     inkscape:label="Calque 1"
     inkscape:groupmode="layer"
     id="layer1"
     transform="translate(-38.267949,-64.000227)"><path
       id="rect958"
       style="fill:#fad398;stroke-width:0.0456436;fill-opacity:1"
       d="M 54.268005,48.000171 V 66.7644 l 0.250114,0.235645 h 3.086117 L 57.267822,66.683268 V 50.999988 H 115.2679 v 58.000082 h -13.0421 l -2.957957,-2.78433 v 2.96829 l 2.986897,2.81585 h 16.01349 V 48.000171 Z"
       inkscape:export-filename="minimize.svg"
       inkscape:export-xdpi="96"
       inkscape:export-ydpi="96" /><path
       id="rect184"
       style="fill:#fad398;stroke-width:0.0456436;fill-opacity:1"
       d="M 38.267948,64.000228 V 127.99994 H 102.26818 V 64.000228 Z m 2.999817,2.999817 H 99.267843 V 125.00012 H 41.267765 Z"
       inkscape:export-filename="maximize.svg"
       inkscape:export-xdpi="96"
       inkscape:export-ydpi="96" /><path
       id="path1357"
       style="fill:#fad398;stroke-width:0.0417211;fill-opacity:1"
       d="m 41.018064,66.750085 v 58.499995 h 58.5 V 66.750085 Z m 2.74201,2.742032 H 96.775578 V 122.50805 H 43.760074 Z"
       inkscape:export-filename="maximize.svg"
       inkscape:export-xdpi="96"
       inkscape:export-ydpi="96" /><path
       id="path1359"
       style="fill:#fad398;stroke-width:0.0417211;fill-opacity:1"
       d="M 57.018115,50.750024 V 67.90178 l 0.228619,0.215396 h 2.820893 L 59.760126,67.827622 V 53.492057 H 112.77564 V 106.508 h -11.92126 l -2.703748,-2.54506 v 2.71321 l 2.730208,2.57388 h 14.63728 V 50.750024 Z"
       inkscape:export-filename="minimize.svg"
       inkscape:export-xdpi="96"
       inkscape:export-ydpi="96" /><path
       id="path1428"
       style="fill:#fad398;stroke-width:0.0386896;fill-opacity:1"
       d="m 43.268064,68.750085 v 54.499995 h 54 V 68.750085 Z m 2.531086,2.554543 H 94.736538 V 120.69554 H 45.79915 Z"
       inkscape:export-filename="maximize.svg"
       inkscape:export-xdpi="96"
       inkscape:export-ydpi="96" /><path
       id="path1452"
       style="fill:#fad398;stroke-width:0.0388684;fill-opacity:1"
       d="m 59.018115,52.750029 v 15.978985 l 0.212987,0.200668 h 2.628011 L 61.572638,68.659926 V 55.304572 H 110.96316 V 104.69549 H 99.857025 l -2.518876,-2.37104 v 2.5277 l 2.543527,2.39788 H 113.51812 V 52.750029 Z"
       inkscape:export-filename="minimize.svg"
       inkscape:export-xdpi="128"
       inkscape:export-ydpi="128" /></g></svg>
