<svg xmlns:xlink="http://www.w3.org/1999/xlink" width="22" xmlns="http://www.w3.org/2000/svg" height="22" id="screenshot-ee1e63fa-05db-808e-8001-c129e315e2f4" viewBox="6184 1464 22 22" style="-webkit-print-color-adjust: exact;" fill="none" version="1.1"><g id="shape-ee1e63fa-05db-808e-8001-c129e315e2f4"><g id="fills-ee1e63fa-05db-808e-8001-c129e315e2f4"><path rx="0" ry="0" d="M6205,1485L6196.453,1476.605M6191.817,1478.391C6188.055,1478.391,6185,1475.391,6185,1471.695C6185,1468,6188.055,1465,6191.817,1465C6195.58,1465,6198.634,1468,6198.634,1471.695C6198.634,1475.391,6195.58,1478.391,6191.817,1478.391Z" style="fill: rgb(177, 178, 181); fill-opacity: 0;"/></g><g id="strokes-ee1e63fa-05db-808e-8001-c129e315e2f4"><g class="stroke-shape"><defs><marker refX="3" fill-opacity="1" orient="auto-start-reverse" id="marker-ed441ead-5f98-8053-8001-c7efca5b0b29-round" viewBox="0 0 6 6" fill="#bba688" refY="3" markerWidth="6" markerHeight="6"><path d="M 3 2.5 A 0.5 0.5 0 0 1 3 3.5 "/></marker></defs><path rx="0" ry="0" d="M6205,1485L6196.453,1476.605M6191.817,1478.391C6188.055,1478.391,6185,1475.391,6185,1471.695C6185,1468,6188.055,1465,6191.817,1465C6195.58,1465,6198.634,1468,6198.634,1471.695C6198.634,1475.391,6195.58,1478.391,6191.817,1478.391Z" style="fill: none; stroke-width: 2; stroke: rgb(187, 166, 136); stroke-opacity: 1; marker-start: url(&quot;#marker-ed441ead-5f98-8053-8001-c7efca5b0b29-round&quot;);"/></g></g></g></svg>