<svg xmlns:xlink="http://www.w3.org/1999/xlink" width="24" xmlns="http://www.w3.org/2000/svg" height="24" id="screenshot-ee1e63fa-05db-808e-8001-c136d96004b2" viewBox="0 0 24 24" style="-webkit-print-color-adjust: exact;" fill="none" version="1.1"><g id="shape-ee1e63fa-05db-808e-8001-c136d96004b2" width="24" height="24" rx="0" ry="0" style="fill: rgb(0, 0, 0);"><g id="shape-ee1e63fa-05db-808e-8001-c136d961d151"><g id="fills-ee1e63fa-05db-808e-8001-c136d961d151"><path rx="0" ry="0" d="M22,18.055L22,20.513C22,22.438,17.345,24,12,24C6.656,24,2,22.438,2,20.513L2,18.055C4.418,19.793,9.005,20.311,12,20.311C15.006,20.311,19.588,19.788,22,18.055ZZM12,14.646C8.994,14.646,4.412,14.123,2,12.39L2,14.824C2,16.75,6.656,18.311,12,18.311C17.345,18.311,22,16.749,22,14.824L22,12.39C19.582,14.128,14.995,14.646,12,14.646ZZM12,0C6.656,0,2,1.562,2,3.488C2,5.414,6.656,6.975,12,6.975C17.345,6.975,22,5.413,22,3.488C22,1.562,17.345,0,12,0ZZM12,8.975C8.994,8.975,4.412,8.452,2,6.719L2,9.159C2,11.085,6.656,12.646,12,12.646C17.345,12.646,22,11.084,22,9.159L22,6.719C19.582,8.457,14.995,8.975,12,8.975ZZ" style="fill: rgb(255, 255, 255); fill-opacity: 1;"/></g></g></g></svg>